<mxfile host="65bd71144e">
    <diagram name="Page-1" id="V6Q74ERg5iXvjyL7rww4">
        <mxGraphModel dx="763" dy="634" grid="1" gridSize="10" guides="1" tooltips="1" connect="1" arrows="1" fold="1" page="1" pageScale="1" pageWidth="827" pageHeight="1169" math="0" shadow="0">
            <root>
                <mxCell id="0"/>
                <mxCell id="1" parent="0"/>
                <mxCell id="YayQiFIAfATA5BpIO5K9-21" value="" style="rounded=1;whiteSpace=wrap;html=1;" parent="1" vertex="1">
                    <mxGeometry x="124" y="120" width="636" height="380" as="geometry"/>
                </mxCell>
                <mxCell id="YayQiFIAfATA5BpIO5K9-23" style="edgeStyle=orthogonalEdgeStyle;rounded=0;orthogonalLoop=1;jettySize=auto;html=1;" parent="1" source="YayQiFIAfATA5BpIO5K9-1" target="YayQiFIAfATA5BpIO5K9-5" edge="1">
                    <mxGeometry relative="1" as="geometry"/>
                </mxCell>
                <mxCell id="YayQiFIAfATA5BpIO5K9-1" value="API" style="ellipse;shape=cloud;whiteSpace=wrap;html=1;strokeWidth=2;" parent="1" vertex="1">
                    <mxGeometry x="354" y="170" width="120" height="80" as="geometry"/>
                </mxCell>
                <mxCell id="YayQiFIAfATA5BpIO5K9-26" style="edgeStyle=orthogonalEdgeStyle;rounded=0;orthogonalLoop=1;jettySize=auto;html=1;entryX=0.16;entryY=0.55;entryDx=0;entryDy=0;entryPerimeter=0;" parent="1" source="YayQiFIAfATA5BpIO5K9-4" target="YayQiFIAfATA5BpIO5K9-1" edge="1">
                    <mxGeometry relative="1" as="geometry"/>
                </mxCell>
                <mxCell id="YayQiFIAfATA5BpIO5K9-4" value="&lt;font color=&quot;#000000&quot;&gt;WebApp&lt;/font&gt;" style="sketch=0;outlineConnect=0;gradientColor=none;fontColor=#545B64;strokeColor=none;fillColor=#000000;dashed=0;verticalLabelPosition=bottom;verticalAlign=top;align=center;html=1;fontSize=12;fontStyle=0;aspect=fixed;shape=mxgraph.aws4.illustration_desktop;pointerEvents=1" parent="1" vertex="1">
                    <mxGeometry x="160" y="169" width="100" height="91" as="geometry"/>
                </mxCell>
                <mxCell id="YayQiFIAfATA5BpIO5K9-22" style="edgeStyle=orthogonalEdgeStyle;rounded=0;orthogonalLoop=1;jettySize=auto;html=1;entryX=0.875;entryY=0.5;entryDx=0;entryDy=0;entryPerimeter=0;" parent="1" source="YayQiFIAfATA5BpIO5K9-5" target="YayQiFIAfATA5BpIO5K9-1" edge="1">
                    <mxGeometry relative="1" as="geometry"/>
                </mxCell>
                <mxCell id="YayQiFIAfATA5BpIO5K9-25" value="Store IGC files" style="edgeLabel;html=1;align=center;verticalAlign=middle;resizable=0;points=[];" parent="YayQiFIAfATA5BpIO5K9-22" vertex="1" connectable="0">
                    <mxGeometry x="0.1993" y="-1" relative="1" as="geometry">
                        <mxPoint x="10" y="1" as="offset"/>
                    </mxGeometry>
                </mxCell>
                <mxCell id="YayQiFIAfATA5BpIO5K9-5" value="AWS S3&lt;br&gt;(un-versioned)" style="sketch=0;outlineConnect=0;fontColor=#232F3E;gradientColor=none;fillColor=#000000;strokeColor=none;dashed=0;verticalLabelPosition=bottom;verticalAlign=top;align=center;html=1;fontSize=12;fontStyle=0;aspect=fixed;pointerEvents=1;shape=mxgraph.aws4.bucket;" parent="1" vertex="1">
                    <mxGeometry x="610" y="171" width="75" height="78" as="geometry"/>
                </mxCell>
                <mxCell id="YayQiFIAfATA5BpIO5K9-17" style="edgeStyle=orthogonalEdgeStyle;rounded=0;orthogonalLoop=1;jettySize=auto;html=1;" parent="1" source="YayQiFIAfATA5BpIO5K9-16" edge="1">
                    <mxGeometry relative="1" as="geometry">
                        <mxPoint x="647.5" y="270" as="targetPoint"/>
                        <Array as="points">
                            <mxPoint x="648" y="310"/>
                            <mxPoint x="648" y="310"/>
                        </Array>
                    </mxGeometry>
                </mxCell>
                <mxCell id="YayQiFIAfATA5BpIO5K9-16" value="" style="sketch=0;outlineConnect=0;fontColor=#232F3E;gradientColor=none;fillColor=#000000;strokeColor=none;dashed=0;verticalLabelPosition=bottom;verticalAlign=top;align=center;html=1;fontSize=12;fontStyle=0;aspect=fixed;pointerEvents=1;shape=mxgraph.aws4.lambda_function;" parent="1" vertex="1">
                    <mxGeometry x="612.5" y="390" width="70" height="70" as="geometry"/>
                </mxCell>
                <mxCell id="YayQiFIAfATA5BpIO5K9-18" value="&lt;div style=&quot;&quot;&gt;&lt;span style=&quot;background-color: initial;&quot;&gt;Delete the oldest files when the number of objects goes over the limit&lt;/span&gt;&lt;/div&gt;" style="text;html=1;strokeColor=default;fillColor=default;align=center;verticalAlign=middle;whiteSpace=wrap;rounded=1;gradientColor=none;perimeterSpacing=0;dashed=1;" parent="1" vertex="1">
                    <mxGeometry x="573.75" y="310" width="147.5" height="60" as="geometry"/>
                </mxCell>
            </root>
        </mxGraphModel>
    </diagram>
</mxfile>